<svg xmlns="http://www.w3.org/2000/svg" viewBox="0 0 900 520"><defs><linearGradient id="bg" x1="0" y1="0" x2="1" y2="1"><stop stop-color="#efe7df"/><stop offset="1" stop-color="#fafafa"/></linearGradient></defs><rect width="900" height="520" rx="30" fill="url(#bg)"/><rect x="105" y="55" width="235" height="410" rx="34" fill="#151515"/><rect x="119" y="75" width="207" height="370" rx="24" fill="#fff"/><rect x="190" y="84" width="66" height="8" rx="4" fill="#252525"/><text x="145" y="132" font-family="Arial" font-size="20" font-weight="700" fill="#222">What can I cook?</text><g font-family="Arial" text-anchor="middle"><rect x="143" y="158" width="70" height="86" rx="13" fill="#f5efe9"/><text x="178" y="207" font-size="35">🍅</text><rect x="231" y="158" width="70" height="86" rx="13" fill="#eef5e9"/><text x="266" y="207" font-size="35">🥦</text><rect x="143" y="259" width="70" height="86" rx="13" fill="#fff2de"/><text x="178" y="308" font-size="35">🥕</text><rect x="231" y="259" width="70" height="86" rx="13" fill="#f8eadf"/><text x="266" y="308" font-size="35">🧅</text></g><rect x="146" y="371" width="152" height="44" rx="12" fill="#151515"/><text x="222" y="399" text-anchor="middle" font-family="Arial" font-size="14" font-weight="700" fill="#fff">Scan ingredients</text><rect x="395" y="73" width="390" height="365" rx="22" fill="#fff" stroke="#e6ddd5"/><text x="430" y="120" font-family="Arial" font-size="24" font-weight="700" fill="#282828">Recipe matches</text><text x="720" y="120" text-anchor="end" font-family="Arial" font-size="18" font-weight="700" fill="#6b5cff">24</text><g><rect x="430" y="148" width="150" height="118" rx="16" fill="#f4eee9"/><text x="505" y="215" text-anchor="middle" font-size="48">🍝</text><rect x="600" y="148" width="150" height="118" rx="16" fill="#edf4e8"/><text x="675" y="215" text-anchor="middle" font-size="48">🥗</text><rect x="430" y="288" width="150" height="118" rx="16" fill="#fff0df"/><text x="505" y="355" text-anchor="middle" font-size="48">🍛</text><rect x="600" y="288" width="150" height="118" rx="16" fill="#f6ebe3"/><text x="675" y="355" text-anchor="middle" font-size="48">🥘</text></g><circle cx="805" cy="99" r="34" fill="#685aff"/><text x="805" y="106" text-anchor="middle" font-family="Arial" font-size="18" font-weight="700" fill="#fff">AI</text></svg>